<?xml version="1.0" standalone="no"?>
<!DOCTYPE svg PUBLIC "-//W3C//DTD SVG 1.1//EN" "http://www.w3.org/Graphics/SVG/1.1/DTD/svg11.dtd" >
<svg xmlns="http://www.w3.org/2000/svg">
<metadata>
This is a custom SVG webfont generated by Font Squirrel.
</metadata>
<defs>
<font id="webfontCLJ3VJzF" horiz-adv-x="1378" >
<font-face units-per-em="2048" ascent="1636" descent="-412" />
<missing-glyph horiz-adv-x="458" />
<glyph unicode=" "  horiz-adv-x="458" />
<glyph unicode="&#x09;" horiz-adv-x="458" />
<glyph unicode="&#xa0;" horiz-adv-x="458" />
<glyph unicode="!" horiz-adv-x="294" d="M0 1233q0 57 43 100t100 43h142l-49 -989h-189zM4 0v172q0 104 105 104h172v-276h-277z" />
<glyph unicode="&#x22;" horiz-adv-x="686" d="M0 903v225q0 123 63.5 193t192.5 94v-47q0 -25 -12 -37q-10 -10 -47 -35q-20 -10 -45 -32q-33 -39 -35 -88q0 -8 4 -25q2 -10 39 -10h92v-150q0 -88 -92 -88h-160zM399 903v225q0 121 66 193q63 70 190 94v-47q0 -35 -63 -72q-20 -10 -43 -32q-31 -33 -33 -88 q-6 -18 3 -26.5t36 -8.5h4h92v-150q0 -88 -96 -88h-156z" />
<glyph unicode="#" horiz-adv-x="1595" d="M0 332l43 133q14 51 68 90q49 37 102 37h174l66 196h-301l45 132q14 49 65 86q53 41 103 43h176l110 327h80q113 0 127 -73q14 -72 2 -123l-49 -131h188l113 327h84q119 0 127 -73q10 -76 -2 -123l-45 -131h244l-88 -261h-244l-64 -196h244l-84 -260h-248l-112 -332h-273 l109 332h-185l-110 -332h-277l111 332h-299zM659 592h189l63 196h-184z" />
<glyph unicode="$" horiz-adv-x="1130" d="M-25 436h273q14 -119 92 -168q47 -33 113 -45v369h-4l-9 4q-6 0 -12 2t-16 2q-193 39 -273 96q-70 39 -110 123q-33 72 -33 185q0 205 131 305q104 86 326 102v172h4q59 0 100 -41q43 -43 43 -102v-29q190 -23 293 -106q129 -115 139 -322h-160q-92 0 -129 84 q-16 35 -55 70q-47 27 -88 39v-340q41 -14 123 -35q55 -14 82 -25q53 -18 110 -49q76 -43 125 -119q39 -76 39 -184q0 -213 -143 -332q-119 -94 -336 -108v-172h-147v172q-207 12 -326 112q-138 117 -152 340zM264 1020q0 -104 189 -148v312q-88 -10 -129 -39 q-60 -41 -60 -125zM600 215q78 2 143 45q61 39 62 127q0 94 -205 166v-338z" />
<glyph unicode="%" horiz-adv-x="1331" d="M0 1044q0 115 82 197t203 82q117 0 198 -82q84 -84 84 -197q0 -119 -84 -202q-82 -82 -198 -82q-121 0 -203 81.5t-82 202.5zM125 0l764 1321q25 43 57.5 49t77.5 6h125l-797 -1376h-227zM143 1044q0 -59 41 -100t101 -41q53 0 98 41q41 39 41 100q0 57 -41 96.5 t-98 39.5q-61 0 -101 -39q-41 -42 -41 -97zM709 336q0 -120 79 -203q80 -82 199 -82q121 0 203 82t82 203q0 119 -82 201q-84 84 -203 84t-199 -84q-79 -82 -79 -201zM852 336q0 53 39 98q35 41 96.5 41t99.5 -41q41 -45 41 -98q0 -59 -41 -100q-39 -39 -100 -39 q-59 0 -96 39q-39 43 -39 100z" />
<glyph unicode="&#x26;" horiz-adv-x="1263" d="M-25 365q0 131 66 227q70 100 223 180l-55 72q-47 57 -62 104q-20 49 -20 105q0 154 100 235q96 92 260 92q154 0 248 -84q92 -80 92 -221q0 -109 -51 -186q-66 -88 -172 -154l201 -243q12 23 43 100l20 129h144q63 0 75 -37q12 -35 9 -68q-18 -86 -31 -120 q-53 -115 -113 -193l252 -303h-319l-92 117q-51 -47 -88 -74q-43 -31 -93 -43q-135 -29 -276 -16.5t-244 92.5q-117 108 -117 289zM240 385q0 -76 57 -133q55 -55 135 -55q59 0 117 22q43 18 98 74l-248 311l-71 -51q-47 -35 -64 -74q-24 -43 -24 -94zM373 1075 q0 -18 14 -55q2 -20 16 -37q6 -8 12.5 -15t12.5 -16l43 -55l37 23q41 29 63 67q25 41 25 88t-33 76q-29 29 -80 29t-80 -29q-30 -31 -30 -76z" />
<glyph unicode="'" horiz-adv-x="391" d="M0 1163l113 205q16 23 26 31q18 16 58 16h180l-246 -252h-131z" />
<glyph unicode="(" horiz-adv-x="518" d="M-25 676q0 215 80 436q55 160 160 320q72 113 170 118.5t111 5.5q-133 -225 -189 -423q-63 -211 -63 -457q0 -252 63 -457q55 -207 189 -424h-197q-166 225 -244 445q-80 209 -80 436z" />
<glyph unicode=")" horiz-adv-x="550" d="M0 -201q125 209 193 420q59 213 59 457q0 250 -59 457q-63 209 -193 428h197q168 -240 247 -449q84 -227 84 -436q0 -207 -84 -436q-55 -152 -163 -316q-72 -113 -170.5 -119t-110.5 -6z" />
<glyph unicode="*" horiz-adv-x="479" d="M0 1200l16 47q12 53 64 41l96 -28v100q0 51 55 51h50v-151l100 28q47 14 63 -41l17 -47l-146 -41l58 -80q27 -47 -17 -75l-45 -27l-84 119l-55 -76q-37 -43 -76 -8l-41 28l84 119z" />
<glyph unicode="+" horiz-adv-x="946" d="M0 440v97q0 88 88 88h272v358h97q88 0 88 -86v-272h358v-185h-358v-360h-185v360h-360z" />
<glyph unicode="," horiz-adv-x="231" d="M0 -209q0 35 55 66q25 14 37 30q29 45 29 84q4 14 -5.5 21.5t-31.5 7.5h-80v135q0 84 84 84h135v-211q0 -98 -55 -176q-61 -61 -168 -84v43z" />
<glyph unicode="-" horiz-adv-x="575" d="M0 420v117q0 106 109 106h444v-223h-553z" />
<glyph unicode="." horiz-adv-x="227" d="M0 0v135q0 84 84 84h135v-219h-219z" />
<glyph unicode="/" horiz-adv-x="587" d="M0 0l403 1380h156l-387 -1329q-14 -51 -72 -51h-100z" />
<glyph unicode="0" horiz-adv-x="1042" d="M-25 688q0 393 152 567q123 145 356 146q223 0 361 -150q152 -174 151 -563q0 -399 -155 -567q-123 -141 -357 -141q-229 0 -370 151q-138 154 -138 557zM260 688q0 -152 31 -285q31 -135 96 -176q43 -31 96 -30q49 0 101 30q61 43 92 176q33 141 33 281q0 145 -35 281 q-33 131 -94 180q-39 31 -96.5 31t-98.5 -31q-61 -49 -92 -178q-33 -138 -33 -279z" />
<glyph unicode="1" horiz-adv-x="559" d="M0 928v200q88 0 182 58q92 55 129 190h80q57 0 103 -41q43 -41 43 -98v-1237h-277v928h-260z" />
<glyph unicode="2" horiz-adv-x="1024" d="M-25 0q0 193 93 340q83 135 251 252q4 4 17.5 11t19.5 11l56 33q127 80 204 158q72 72 72 151q0 95 -55 148q-55 55 -154 55q-106 0 -168 -67q-55 -72 -55 -189v-10h-143q-84 0 -99 45q-16 47 -6 102q28 132 117 228q133 129 371 129q223 0 352 -117q129 -123 129 -319 q0 -145 -70 -244q-70 -106 -264 -238l-170 -110q-100 -63 -113 -125h605v-244h-990z" />
<glyph unicode="3" horiz-adv-x="1034" d="M-25 432v4h269q0 -117 55 -172q59 -59 170 -59q113 0 164 55q59 51 59 156q0 100 -67 155q-66 53 -205 54h-10h-11q-10 0 -14 -2l-4 -2v190h27q123 0 184 49q59 47 59 144q0 78 -51 129q-43 43 -135 43q-102 0 -146 -52q-51 -51 -51 -155v-8h-143q-86 0 -100 45 q-16 47 -5 98q29 111 107 180q129 117 348 117q213 0 336 -105q129 -104 129 -272q0 -92 -43 -160q-51 -74 -129 -112q111 -53 164 -127q55 -80 55 -197q0 -213 -139 -332q-135 -117 -379 -116q-246 0 -369 116q-125 113 -125 336z" />
<glyph unicode="4" horiz-adv-x="1091" d="M0 307v248l524 821h207q59 0 100 -43q43 -45 46 -96v-86v-619h163v-225h-163v-307h-277v307h-600zM219 524h385v609z" />
<glyph unicode="5" horiz-adv-x="1034" d="M-25 399h273q4 -96 63 -147q49 -47 150 -47q115 0 176 63q59 68 59 197q0 119 -63 182q-63 70 -172 70q-59 0 -109 -25q-49 -27 -76 -71l-256 12l93 747h671q53 -2 99 -45q41 -39 41 -98v-86v-10h-613l-35 -269q35 29 105 52q61 20 135 20q211 0 340 -129 q131 -131 131 -340q0 -227 -143 -362q-143 -133 -383 -133q-227 0 -352 108q-124 110 -134 311z" />
<glyph unicode="6" horiz-adv-x="1042" d="M-25 655q0 365 142 553q145 193 411 193q184 0 303 -96q115 -104 130 -261h-209q-41 0 -62 23l-47 53q-2 2 -55 39q-29 20 -92 21q-102 0 -164 -93q-59 -88 -64 -272q47 45 117 74q80 27 152 26q205 0 335 -122q123 -133 123 -328q0 -215 -135 -356q-135 -129 -364 -129 q-260 0 -392 167q-129 168 -129 508zM272 457q0 -121 60 -189q55 -68 164 -67q102 0 155 67q57 70 58 189q0 111 -62 172q-53 59 -160 59q-100 0 -159 -59q-56 -64 -56 -172z" />
<glyph unicode="7" horiz-adv-x="1103" d="M0 1137v239h911q109 0 125 -78q16 -80 -32 -135q-115 -131 -205 -266q-96 -145 -152 -276q-132 -301 -147 -621h-295q10 285 139 575q119 283 352 562h-696z" />
<glyph unicode="8" horiz-adv-x="1038" d="M-25 408q0 111 41 188q41 76 152 139l12 4q-6 0 -10 2q-6 3 -6 7q-72 39 -113 104q-43 70 -43 176.5t60 192.5q12 31 45 55q6 6 10 8l8 8q55 43 139 74q82 31 195 31l14 4h4l13 -4q111 0 194 -31q82 -31 137 -74q18 -10 21 -16q22 -15 49 -55q61 -88 57 -193 q-2 -104 -47 -176q-40 -68 -110 -104q-2 -2 -4 -4.5t-5 -2.5l-4 -2l13 -4q102 -61 151 -139q43 -84 43 -188q0 -209 -135 -320q-133 -109 -369 -108h-4h-4h-4q-238 0 -371 108q-129 108 -129 320zM260 416q0 -96 59 -156q43 -47 121 -51h4h5q12 -4 26 -4h4h4h4q16 0 29 4h4 h4q66 4 119 51q61 61 62 156q0 59 -33 112q-61 100 -189 101h-4q-135 0 -190 -101q-29 -40 -29 -112zM281 1008q0 -72 45 -117q47 -47 153 -47q102 0 154 47q47 45 47 117q0 70 -51 119t-150 49q-95 0 -147 -50q-51 -48 -51 -118z" />
<glyph unicode="9" horiz-adv-x="1042" d="M-25 911q0 334 277 445q106 45 217 45q260 0 395 -176q131 -174 131 -508q0 -360 -143 -549q-145 -188 -416 -188q-195 0 -301 92q-29 23 -72 71q-35 41 -34 105q0 80 96 80h172q10 -72 51 -101q49 -31 123 -30q101 0 166 92q53 94 63 270q-45 -45 -116 -76 q-47 -18 -152 -18q-215 0 -336 119q-121 120 -121 327zM256 924q0 -115 59 -176q55 -63 164 -64q102 0 158 64q33 33 49 108q14 66 -2 141q-14 70 -68 125q-51 53 -147 54q-59 0 -98 -23q-43 -25 -56 -45q-59 -67 -59 -184z" />
<glyph unicode=":" horiz-adv-x="227" d="M0 135v141q0 80 84 80h135v-221h-219zM0 709v135q0 84 84 84h135v-219h-219z" />
<glyph unicode=";" horiz-adv-x="231" d="M0 -209q0 35 55 66q25 14 37 30q29 45 29 84q4 14 -5.5 21.5t-31.5 7.5h-80v135q0 84 84 84h135v-211q0 -98 -55 -176q-61 -61 -168 -84v43zM4 567v142q0 80 84 79h135v-221h-219z" />
<glyph unicode="&#x3c;" horiz-adv-x="874" d="M-25 688q0 95 80 135l781 428v-155q0 -16 -13 -41q-14 -29 -35 -39l-557 -303q-31 -25 0 -49l605 -324v-213l-785 426q-76 43 -76 135z" />
<glyph unicode="=" horiz-adv-x="946" d="M0 436v96q0 88 88 89h815v-185h-903zM0 748v96q0 88 88 88h815v-184h-903z" />
<glyph unicode="&#x3e;" horiz-adv-x="903" d="M0 127v158q0 8 10 39q10 29 33 41l561 299q31 25 0 49l-604 327v211l780 -428q84 -43 84 -135t-84 -133z" />
<glyph unicode="?" horiz-adv-x="935" d="M-25 1067q0 61 31 123q35 68 78 106q82 76 219 105q133 27 268 -4q129 -31 228 -129q94 -94 94 -264q0 -132 -55 -203q-66 -84 -117 -123q-41 -31 -119 -100q-53 -47 -49 -142v-20v-17h-254q0 129 23 207q20 74 143 170q53 43 100 96q43 49 43 119q0 160 -135 180 q-129 20 -192 -51q-55 -57 -58 -168q-84 0 -178 4q-70 2 -70 111zM293 0v172q0 104 98 104h176v-276h-274z" />
<glyph unicode="@" horiz-adv-x="1814" d="M-25 512q0 141 45 299q51 154 148 256q131 166 332 260q201 88 436 88q150 0 301 -43q133 -43 240 -121q125 -104 190 -227q66 -137 66 -284.5t-66 -282.5q-66 -137 -174 -226q-70 -57 -145 -84q-88 -27 -164 -26q-96 0 -148 39q-53 43 -53 121q-51 -80 -119 -121 q-63 -35 -159 -35q-145 0 -226 80q-80 83 -80 239q0 223 133 375q131 154 324 154q74 0 127 -29q55 -37 92 -92l53 92q127 0 129 -63q2 -55 -2 -80l-100 -420q-4 -12 -4 -21q-2 -6 -2 -16q0 -37 22 -51q23 -16 68 -17q31 0 78 21q49 25 76 51q78 78 118 176q45 109 45 219 q0 225 -176 373q-174 143 -448 144q-145 0 -248 -31q-113 -31 -209 -96q-156 -100 -244 -269q-88 -156 -88 -352q0 -289 197 -461q188 -168 520 -168q137 0 295 45q102 35 141 54q72 33 131 77q16 -31 2 -100.5t-86 -105.5q-66 -35 -143 -62q-152 -55 -336 -55 q-168 0 -332 45q-162 51 -272 135q-152 121 -217 260q-68 148 -68 336zM600 440q0 -82 39 -133q37 -43 109 -43q80 0 145 60q61 49 88 151l51 205q-15 77 -55 117q-39 39 -109 39q-113 0 -188 -115q-80 -119 -80 -281z" />
<glyph unicode="A" d="M0 0l457 1284q37 92 135 92h223l502 -1376h-301l-92 285h-537l-88 -285h-299zM465 516h383l-193 584z" />
<glyph unicode="B" horiz-adv-x="1183" d="M0 0v1233q0 57 43 100t100 43h504q217 0 326 -88q111 -96 110 -260q0 -106 -43 -176q-43 -68 -125 -109q104 -43 160 -122q53 -78 53 -201q0 -201 -129 -311q-133 -109 -370 -109h-629zM272 248h336q109 0 172 45q55 40 56 135q0 96 -56 139q-53 41 -176 41h-332v-360z M272 844h324q102 0 151.5 37t49.5 110q0 76 -49 113q-43 33 -156 33h-320v-293z" />
<glyph unicode="C" horiz-adv-x="1286" d="M-25 688q0 360 168 541q172 186 496 186q266 0 422 -131q147 -129 168 -360h-172q-96 0 -137 84q-28 52 -68 92q-78 59 -213 59q-182 0 -283 -119q-96 -121 -96 -352q0 -223 96 -344q94 -125 277 -125q127 0 211 66q80 63 108 190h277q-23 -240 -180 -375 q-164 -133 -433 -133q-313 0 -477 189q-164 182 -164 532z" />
<glyph unicode="D" horiz-adv-x="1222" d="M0 0v1233q0 57 43 100t100 43h398q315 0 471 -168q156 -174 155 -520q0 -184 -55 -332q-66 -154 -168 -231q-92 -70 -188 -96q-98 -29 -291 -29h-465zM276 248h228q197 0 289 104q88 94 88 336q0 231 -84 340q-80 109 -256 109h-265v-889z" />
<glyph unicode="E" horiz-adv-x="1046" d="M0 0v1233q0 57 43 100t100 43h856v-235h-718v-297h534v-92q0 -61 -41 -102.5t-102 -41.5h-391v-352h718v-256h-999z" />
<glyph unicode="F" horiz-adv-x="1046" d="M0 0v1233q0 57 43 100t100 43h856v-235h-718v-297h534v-92q0 -61 -41 -102.5t-102 -41.5h-391v-608h-281z" />
<glyph unicode="G" horiz-adv-x="1306" d="M-25 692q0 334 172 525q180 199 478 198q255 0 424 -123q164 -133 194 -344h-190q-86 0 -125 76q-27 47 -80 88q-80 55 -211 55q-170 0 -272 -123q-100 -131 -101 -352q0 -223 105 -352q102 -125 282 -125q135 0 226 78q86 78 110 219h-168q-57 0 -100 43t-43 100v93h571 v-748h-76q-111 0 -139 113l-12 51q-68 -102 -172 -152q-109 -45 -227 -45q-297 0 -469 197q-177 192 -177 528z" />
<glyph unicode="H" horiz-adv-x="1193" d="M0 0v1233q0 57 43 100t100 43h142v-512h567v512h289v-1376h-289v612h-567v-612h-285z" />
<glyph unicode="I" horiz-adv-x="294" d="M0 0v1233q0 57 43 100t100 43h142v-1376h-285z" />
<glyph unicode="J" horiz-adv-x="923" d="M0 408v108h276v-168q0 -74 39 -112q37 -35 125 -35q83 0 123 43q33 43 33 172v817q0 57 43 100t104 43h138v-973q0 -129 -13 -190q-20 -68 -53 -109q-55 -68 -147 -104q-111 -33 -224 -33q-123 0 -208 33q-84 23 -148 88q-51 55 -68 113q-20 68 -20 207z" />
<glyph unicode="K" horiz-adv-x="1282" d="M0 0v1233q0 57 43 100t100 43h142v-565l534 565h357l-551 -557l600 -819h-344l-349 487q-76 98 -142 99q-14 0 -28 -4q-78 -25 -77 -99v-483h-285z" />
<glyph unicode="L" horiz-adv-x="999" d="M0 0v1233q0 57 43 100t100 43h142v-1120h671v-256h-956z" />
<glyph unicode="M" horiz-adv-x="1449" d="M0 0v1233q0 57 43 100q45 45 100 47h277l272 -1052l273 1052h419v-1380h-264v1112l-280 -1112h-291l-285 1112v-1112h-264z" />
<glyph unicode="N" horiz-adv-x="1191" d="M0 0v1233q0 57 43 100q45 45 100 47h154l559 -948v948h281v-1380h-293l-563 948v-948h-281z" />
<glyph unicode="O" d="M-25 688q0 334 177 533q186 195 491 194.5t494 -194.5q180 -199 180 -533t-180 -528q-186 -193 -494 -193q-309 0 -491 193q-177 192 -177 528zM260 688q0 -233 100 -352q102 -123 282.5 -123t285.5 123q104 129 104 352q0 224 -104 356q-104 123 -284.5 123t-283.5 -123 q-100 -120 -100 -356z" />
<glyph unicode="P" horiz-adv-x="1103" d="M0 0v1233q0 57 43 100t100 43h469q219 0 328 -112q113 -113 113 -332q0 -207 -109 -328q-109 -113 -311 -112h-348v-492h-285zM285 739h274q113 0 162 49q51 43 51 152q0 94 -47 147q-55 49 -150 50h-290v-398z" />
<glyph unicode="Q" horiz-adv-x="1382" d="M-25 688q0 334 177 533q186 195 491 194.5t494 -194.5q180 -199 180 -533q0 -144 -37 -264q-37 -123 -113 -211l154 -145l-78 -76q-36 -36 -73 -36q-5 0 -11 1q-45 6 -72 31l-79 71q-71 -52 -160 -67q-94 -25 -205 -25q-309 0 -491 193q-177 192 -177 528zM260 688 q0 -233 100 -352q102 -123 283 -123q70 0 88 6q47 14 78 29l-145 139l49 53q29 33 86 43q16 3 30 3q34 0 60 -17l80 -66q23 43 47 129q2 25 10 74q6 37 6 82q0 224 -104 356q-104 123 -284.5 123t-283.5 -123q-100 -120 -100 -356z" />
<glyph unicode="R" horiz-adv-x="1191" d="M0 0v1233q0 57 43 100t100 43h525q223 0 331 -96q113 -102 113 -293q0 -127 -55 -211q-49 -80 -154 -117q92 -31 129 -96q33 -55 43 -203l8 -163v-54q0 -18 4 -51q12 -71 50 -92h-314q-18 35 -22 84q-8 57 -8 88l-5 147q-9 120 -49 173q-45 45 -155 45h-299v-537h-285z M285 776h331q108 0 160 43q51 43 51 137q0 92 -51 136q-49 49 -143 49h-348v-365z" />
<glyph unicode="S" horiz-adv-x="1175" d="M0 428h281q14 -119 92 -168q80 -55 219 -55q125 0 188.5 43t63.5 129q0 127 -361 207l-8 4l-31 8q-205 43 -272 92q-82 45 -113 127q-39 70 -39 184q0 199 136 310q133 106 397 106q243 0 375 -110q133 -123 143 -324h-160q-90 0 -131 84q-25 43 -55 68q-70 51 -197 51 q-120 0 -172 -43q-59 -41 -59 -125q0 -109 231 -160q68 -20 101 -25q31 -10 125 -36l86 -23l57.5 -23.5t54.5 -23.5q80 -49 123 -125q45 -86 45 -184q0 -217 -143 -336q-147 -113 -410 -113q-272 0 -407 117q-148 117 -160 344z" />
<glyph unicode="T" horiz-adv-x="1146" d="M0 1133v100q0 57 43 100t100 43h953v-243h-404v-1133h-284v1133h-408z" />
<glyph unicode="U" horiz-adv-x="1155" d="M0 487v742q0 57 43 104t100 47h146v-860q0 -162 59 -235q66 -72 205 -72q135 0 203 72q63 70 63 235v860h285v-893q0 -256 -143 -387q-133 -133 -408 -133q-276 0 -410 133q-143 131 -143 387z" />
<glyph unicode="V" horiz-adv-x="1275" d="M0 1376h315l293 -1028l269 924q25 104 135 104h205l-469 -1376h-273z" />
<glyph unicode="W" horiz-adv-x="1839" d="M0 1376h293l235 -973l199 973h305l197 -973l211 869q25 104 139 104h176l-391 -1376h-272l-211 1057l-217 -1057h-269z" />
<glyph unicode="X" horiz-adv-x="1275" d="M0 0l432 705l-432 671h328l280 -479l240 412q41 68 125 67h244l-433 -671l433 -705h-324l-285 475l-280 -475h-328z" />
<glyph unicode="Y" horiz-adv-x="1294" d="M0 1376h348l291 -592l238 512q41 80 131 80h229l-453 -864v-512h-284v512z" />
<glyph unicode="Z" horiz-adv-x="1142" d="M0 0v240l748 888h-588q-61 0 -102.5 41t-41.5 103v104h1076v-239l-748 -889h731v-248h-1075z" />
<glyph unicode="[" horiz-adv-x="512" d="M0 -227v1835h487v-203h-227v-1425h227v-107q0 -92 -100 -100h-387z" />
<glyph unicode="\" horiz-adv-x="587" d="M0 1380h100q55 0 72 -57l387 -1323h-156z" />
<glyph unicode="]" horiz-adv-x="512" d="M0 -37h227v1430h-227v102q0 37 27 70q25 31 73 30h387v-1835h-487v203z" />
<glyph unicode="^" horiz-adv-x="587" d="M0 1180l127 151q66 84 154 84q84 0 151 -84l127 -151h-164l-119 137l-83 -92q-27 -27 -43 -35q-20 -10 -54 -10h-96z" />
<glyph unicode="_" horiz-adv-x="1091" d="M0 -193q0 45 33 82q31 35 80 35h927v-172h-1040v55z" />
<glyph unicode="`" horiz-adv-x="391" d="M0 1415h180q37 0 56 -16q16 -14 28 -31l113 -205h-133z" />
<glyph unicode="a" horiz-adv-x="915" d="M-25 315q0 169 99 240q100 72 250 96q22 0 49 6q35 8 63 11q176 25 176 104q0 59 -61.5 77.5t-114.5 18.5q-55 0 -100 -16q-41 -14 -64 -59h-268q14 121 113 202q108 92 307 92q227 0 336 -75q117 -80 117 -224v-364q0 -160 -60 -250q-61 -92 -137 -131q-86 -45 -178 -53 q-106 -10 -166 -10q-143 0 -252 77.5t-109 257.5zM236 324q0 -59 36 -97q37 -31 105 -30q113 0 176 63.5t63 175.5v101q-59 -31 -155 -54l-92 -18q-74 -23 -105 -53q-28 -45 -28 -88z" />
<glyph unicode="b" horiz-adv-x="1050" d="M0 465v915h135q55 0 96 -41t41 -96v-319q41 74 127 125q70 39 176 38q190 0 309.5 -155.5t119.5 -403t-119 -403.5q-61 -78 -162 -111q-104 -35 -203 -34q-195 0 -356 100q-164 102 -164 385zM272 541q0 -168 56 -244q61 -84 168 -84q111 0 172 84q59 80 59 244 q0 145 -59 223q-61 84 -164 84q-111 0 -172 -80q-60 -80 -60 -227z" />
<glyph unicode="c" horiz-adv-x="983" d="M-25 541q0 252 125 399q129 147 357 147q240 0 370 -143q76 -96 105 -205h-281q-27 49 -39 62q-52 55 -147 55q-90 0 -146 -55q-72 -82 -71.5 -264.5t71.5 -260.5q51 -63 156 -63q70 0 117 27q10 2 22 14l23 22q8 10 30.5 31t71.5 21h201q-41 -164 -168 -256 q-123 -92 -311 -92q-227 0 -357 147q-129 144 -129 414z" />
<glyph unicode="d" horiz-adv-x="1024" d="M-25 528q0 254 117 404q119 156 307 155q100 0 176 -38q82 -49 130 -125v456h135q57 0 96 -43q41 -45 41 -94v-778q0 -283 -166 -385q-162 -100 -354 -100q-100 0 -205 34q-96 33 -160 111q-117 147 -117 403zM248 541q0 -164 59 -244q61 -84 172 -84q106 0 168 84 q57 86 58 244q0 144 -62 227q-65 80 -172 80q-102 0 -164 -84q-59 -78 -59 -223z" />
<glyph unicode="e" horiz-adv-x="999" d="M-25 541q0 252 125 399q129 147 357 147q240 0 370 -143q129 -147 129 -412v-28v-17q0 -14 -4 -26h-692q2 -121 59 -185q51 -63 156 -63q70 0 117 27q10 2 22 14l23 22q2 8 29 31q23 20 73 21h201q-41 -164 -168 -256q-123 -92 -311 -92q-227 0 -357 147 q-129 144 -129 414zM260 639h408q-10 113 -56 162q-52 55 -147 55q-90 0 -145.5 -55.5t-59.5 -161.5z" />
<glyph unicode="f" horiz-adv-x="462" d="M0 0v1096q0 147 76 217q72 68 235 67q33 0 66 -4q35 0 67 -4v-221h-71q-57 0 -80 -14q-20 -14 -21 -66v-72h172v-59q0 -61 -41 -98q-40 -37 -92 -37h-39v-805h-272z" />
<glyph unicode="g" horiz-adv-x="1024" d="M-25 532q0 246 115 402q115 154 367 153q190 0 354 -104q166 -106 166 -383v-563q0 -281 -166 -383q-164 -102 -354 -103q-367 0 -457 345h293q31 -55 96 -86q45 -21 91 -22q22 0 42 5q63 14 119 80q55 63 64 190v68q-72 -111 -195 -139q-46 -10 -90 -10q-77 0 -152 30 q-121 49 -207 178t-86 342zM248 524q0 -276 160 -307q35 -7 66 -7q109 0 169 83q39 45 53 137q9 54 9 103q0 43 -7 83q-16 96 -65 164q-53 72 -154 72q-133 0 -182 -100.5t-49 -227.5z" />
<glyph unicode="h" horiz-adv-x="1038" d="M0 0v1376h135q55 0 96 -41t41 -96v-315q72 121 203 151q57 13 109 13q75 0 143 -27q113 -49 188 -154q76 -102 76 -286v-621h-266v553q0 53 -10 109q-8 49 -47 102q-61 84 -164 84q-111 0 -172 -80q-59 -78 -60 -219v-549h-272z" />
<glyph unicode="i" horiz-adv-x="315" d="M25 0v1065h143q55 0 96 -41q39 -39 39 -96v-928h-278zM25 1155v221h143q55 0 96 -41q39 -39 39 -96v-84h-278z" />
<glyph unicode="j" horiz-adv-x="362" d="M-92 -213h51q37 0 49 20q16 12 17 54v139v805v260h143q55 0 96 -41q39 -39 39 -96v-928v-184q0 -135 -80 -201q-78 -59 -264 -59h-51v231zM25 1155v221h143q55 0 96 -41q39 -39 39 -96v-84h-278z" />
<glyph unicode="k" horiz-adv-x="1007" d="M0 0v1376h143q55 0 96.5 -41t41.5 -92v-178v-393l340 393h335l-381 -410l386 -655h-336l-197 360q-54 94 -93 95q-6 0 -11 -2q-43 -14 -43 -50v-147v-256h-281z" />
<glyph unicode="l" horiz-adv-x="339" d="M12 0v1376h144q53 0 96 -39q41 -37 41 -94v-1243h-281z" />
<glyph unicode="m" horiz-adv-x="1654" d="M0 0v625q0 270 141 362q139 90 316 100q96 0 180 -20q94 -23 160 -80q66 55 141 76q84 23 170 24q176 0 323.5 -92t147.5 -370v-625h-139q-59 0 -99 39q-37 37 -36 96v545q0 96 -60 139q-61 45 -129 45q-70 0 -131 -45q-57 -43 -57 -139v-55v-625h-277v625v55 q0 96 -57 139q-61 45 -129 45q-72 0 -129 -45q-55 -43 -55 -139v-680h-281z" />
<glyph unicode="n" horiz-adv-x="970" d="M0 0v625q0 270 141 362q139 90 316 100q176 0 323.5 -92t147.5 -370v-625h-140q-59 0 -98 39t-39 96v545q0 96 -57 139q-61 45 -129 45q-72 0 -129 -45q-55 -43 -55 -139v-680h-281z" />
<glyph unicode="o" horiz-adv-x="999" d="M-25 545q0 108 31 215q33 113 94 180q104 119 269 141q55 7 105 8q104 0 190 -32q156 -63 225 -209q68 -132 67 -307q0 -125 -28 -222q-27 -88 -72 -155q-96 -133 -244 -164q-72 -20 -144 -20q-60 0 -122 14q-133 31 -215 102q-82 70 -119 195q-37 123 -37 254zM248 526 q10 -186 67 -254q29 -37 84 -55q35 -12 69 -12l54 8q61 18 111 90q47 70 51 234q0 145 -45 215q-47 72 -107 92q-31 11 -62 11q-28 0 -58 -9q-61 -18 -88 -45q-77 -85 -77 -241q0 -17 1 -34z" />
<glyph unicode="p" horiz-adv-x="1050" d="M0 -391v995q0 279 164 381t356 102q101 0 203 -36q96 -35 162 -111q119 -156 119 -399q0 -254 -119 -410q-121 -152 -310 -151q-100 0 -176 36q-78 39 -127 123v-395q0 -55 -41 -96q-39 -39 -96 -39h-135zM272 528q0 -156 60 -229q61 -84 172 -84q102 0 164 84 q59 80 59 229q0 160 -59 240q-61 84 -172 84q-106 0 -168 -84q-56 -77 -56 -240z" />
<glyph unicode="q" horiz-adv-x="1024" d="M-25 541q0 249 117 399q68 76 160 111q100 37 205 36q190 0 354 -102q166 -102 166 -381v-995h-137q-57 0 -96 39t-39 96v395q-52 -83 -130 -123q-80 -37 -176 -36q-190 0 -307 151q-117 148 -117 410zM248 528q0 -150 59 -229q61 -84 164 -84q111 0 172 84q61 78 62 229 q0 154 -58 240q-61 84 -168 84q-111 0 -172 -84q-59 -80 -59 -240z" />
<glyph unicode="r" horiz-adv-x="626" d="M0 0v516q0 158 45 262q45 102 127 170q76 59 178 88q104 29 209 29h21h20v-285h-92q-117 0 -172 -55t-55 -176v-549h-281z" />
<glyph unicode="s" horiz-adv-x="962" d="M-25 340v12h273q4 -80 59 -121q59 -39 162 -38q72 0 123 26q47 27 47 78q0 70 -168 106q-68 12 -106 25q-213 51 -285 125q-80 71 -80 190q0 151 117 252q121 92 311 92q209 0 332 -92q117 -100 125 -260h-172q-76 0 -117 70q-8 8 -16.5 15t-16.5 16q-49 37 -131 36 q-80 0 -121 -24q-35 -23 -35 -72q0 -66 207 -108q25 -9 43 -13q25 -4 33 -4q207 -53 285 -119q76 -70 76 -192q0 -178 -127 -272q-119 -88 -361 -88q-229 0 -340 92q-117 92 -117 268z" />
<glyph unicode="t" horiz-adv-x="495" d="M33 201v1175h143q51 0 92 -41q39 -39 39 -96v-178h164v-57q0 -61 -39 -98.5t-96 -37.5h-29v-592q0 -68 80 -67h84v-209q-51 -4 -107 -4q-82 0 -178 8q-153 13 -153 197z" />
<glyph unicode="u" horiz-adv-x="970" d="M0 440v625h281v-680q0 -98 55 -141t129 -43q71 0 129 43q57 43 57 141v543q0 53 39 96q37 41 98 41h140v-625q0 -285 -148 -372q-145 -88 -323 -88q-178 10 -316 96q-141 88 -141 364z" />
<glyph unicode="v" horiz-adv-x="1079" d="M0 1065h297l211 -750l188 654q31 96 127 96h209l-377 -1065h-282z" />
<glyph unicode="w" horiz-adv-x="1542" d="M0 1065h272l168 -737l152 737h285l143 -737l147 641q25 96 129 96h177l-293 -1065h-281l-164 760l-164 -760h-278z" />
<glyph unicode="x" horiz-adv-x="1126" d="M0 0l348 549l-328 516h308l184 -322l205 344q37 72 119 72h239l-399 -614l352 -545h-319l-189 336l-196 -336h-324z" />
<glyph unicode="y" horiz-adv-x="1079" d="M0 1065h307l217 -754l189 658q25 96 127 96h192l-407 -1212q-49 -133 -121 -189q-70 -49 -236 -49h-28h-27q-12 3 -31 6q-12 2 -30 2v221h75q80 0 127 37q29 23 29 66q0 26 -10 57z" />
<glyph unicode="z" horiz-adv-x="966" d="M0 0v213l571 631h-403q-53 0 -96 39q-39 37 -39 94v88h870v-229l-563 -605h584v-231h-924z" />
<glyph unicode="{" horiz-adv-x="731" d="M0 575v201h37q115 0 168 55q51 53 51 189v240q0 133 20 192q25 59 80 88q39 25 109 37q53 10 160 10h14h20q14 0 20.5 -2t20.5 -2v-199h-14h-10q-16 4 -25 5q-98 0 -127 -41q-37 -37 -37 -152v-231q0 -143 -43 -205q-43 -55 -155 -84q115 -25 155 -84q43 -63 43 -205 v-231q0 -119 37 -156q33 -33 127 -33h6h19q6 0 10 2t14 2v-114q-2 -37 -34 -62q-29 -23 -62 -26q-47 0 -84 4l-55 8q-74 14 -109 35q-55 29 -80 88q-20 63 -20 188v244q0 123 -51 188q-53 55 -164 56q-6 0 -10 -2.5t-11 -2.5h-14h-6z" />
<glyph unicode="|" horiz-adv-x="194" d="M0 -360v1984q0 47 37 84t88 37h63v-2105h-188z" />
<glyph unicode="}" horiz-adv-x="731" d="M0 -29h6h19h12h6q100 0 133 33q37 37 37 152v231q0 150 43 205q39 59 156 84q-117 25 -156 84q-43 51 -43 205v231q0 119 -37 156q-31 37 -133 37h-6h-12h-19h-6v110q0 39 30.5 63.5t65.5 24.5q39 0 76 -4q31 -4 64 -6q66 -12 108 -37q53 -29 76 -88q25 -61 24 -192v-244 q0 -129 48 -189q51 -51 167 -51h5h16h10h10v-201h-36q-117 0 -172 -55q-47 -53 -48 -184v-244q0 -133 -24 -188q-20 -51 -76 -88q-43 -23 -108 -35q-68 -12 -164 -12h-17h-18q-20 4 -37 4v198z" />
<glyph unicode="~" horiz-adv-x="579" d="M0 420v121q0 74 72 98q57 23 123 0l131 -47q68 -27 127 -29t102 58q0 -102 -4 -140q-6 -53 -80 -65q-57 -12 -125 14q-72 27 -131 47q-63 20 -121 19q-55 -2 -94 -76z" />
<glyph unicode="&#xa2;" horiz-adv-x="978" d="M-25 532q0 264 129 412q129 147 365 148h23h24l26.5 -6.5t24.5 -2.5l45 160h105l-53 -182q121 -37 192 -133q59 -92 76 -244h-268q-8 45 -25 84q-41 51 -47 59l-172 -614h2h2q29 -4 45 -4q88 0 135 47q41 41 64 147h268q-12 -201 -139 -315q-123 -113 -328 -113h-27h-26 q-20 0 -56 9l-57 -207h-102l63 227q-144 65 -221 197q-68 134 -68 331zM252 528q0 -94 24 -163q16 -72 64 -113l168 608q-16 4 -29 4h-10h-4q-108 0 -158 -84q-55 -89 -55 -252z" />
<glyph unicode="&#xa3;" horiz-adv-x="1110" d="M0 209q145 102 184 219h-184v176h201q-16 76 -25 101h-176v176h127q-6 25 -10 69.5t-4 69.5q0 180 127 289q131 106 327 106q170 0 293 -92q119 -92 144 -274l-144 -21q-84 -12 -112 27q-28 37 -31 49q-51 100 -162 100q-92 0 -131 -55q-47 -53 -47 -125q0 -61 22 -143 h193q31 0 80 -9q55 -9 55 -104v-63h-278q20 -90 20 -101h174q33 0 57.5 -30.5t24.5 -65.5l2 -80h-278q-27 -74 -125 -184q53 25 133 24q51 0 194 -37q86 -16 105 -16q68 0 200 57l105 -229q-119 -57 -268 -59q-94 0 -230 36q-164 39 -219 39q-120 0 -240 -79z" />
<glyph unicode="&#xa7;" horiz-adv-x="735" d="M-25 768q0 53 29 135q27 53 100 105q-33 29 -53 79q-18 27 -18 89q0 100 76 167q78 72 215 72q141 0 225 -72q72 -63 94 -180l-94 -12q-119 -25 -135 41q-14 63 -82 63q-49 0 -72 -22q-25 -22 -24 -49q0 -35 32 -68q18 -18 152 -108q139 -94 164 -119q57 -51 92 -109 q29 -68 29 -116q0 -70 -37 -132q-31 -61 -97 -104q45 -51 66 -92q23 -39 22 -100q0 -113 -84 -185q-72 -72 -227 -71q-154 0 -231 71q-89 65 -105 197l60 8q80 8 102 -10l86 -74q37 -37 92 -37q47 0 76 29q29 23 29 59q0 41 -25 66q-28 28 -196 135q-152 102 -216 180 q-45 74 -45 164zM156 809q0 -80 96 -145l209 -144q33 29 47 55q16 23 16 54q0 25 -16 51q-28 31 -92 80l-197 147q-18 -8 -43 -39q-20 -26 -20 -59z" />
<glyph unicode="&#xa8;" horiz-adv-x="686" d="M0 903v49q0 31 63 68q2 2 10.5 7t12.5 9q2 2 10 9.5t13 11.5q20 33 30 88q4 18 -6 26.5t-37 8.5h-92v147q0 88 96 88h156v-227q0 -127 -63 -193q-70 -76 -193 -92zM399 903v49q0 31 62 68q28 15 43 37q29 37 37 88q0 10 -6.5 22.5t-38.5 12.5h-93v147q0 88 93 88h159 v-227q0 -117 -63 -193q-70 -76 -193 -92z" />
<glyph unicode="&#xa9;" horiz-adv-x="479" d="M0 1192q0 45 16 88q16 39 52 76q41 41 71 53q51 14 88 14q45 0 88 -18q27 -8 76 -49q31 -45 49 -76q20 -47 21 -88q0 -47 -21 -88q-8 -20 -49 -72q-47 -39 -76 -51q-59 -16 -88 -16q-31 0 -84 16q-47 16 -75 51q-35 29 -52 76q-16 39 -16 84zM37 1192q0 -27 14 -72 q23 -45 45 -59q14 -23 60 -45q37 -12 71 -12q39 0 76 12q12 9 31 18q16 8 31 27q14 10 43 59q12 37 12 72q0 43 -17 76q-25 45 -39 59t-30.5 22.5t-30.5 22.5q-37 12 -76 12q-35 0 -71 -12q-45 -27 -60 -45q-20 -16 -26 -29q-9 -18 -19 -30q-14 -45 -14 -76zM104 1192 q0 65 31 104q35 35 96 35q53 0 80 -26q33 -29 33 -68h-33q-12 0 -26 14l-13 21q-25 12 -41 12q-40 0 -55 -24q-16 -27 -16 -68q0 -45 16 -68q15 -25 55 -24q18 0 41 12q18 31 21 39h51q0 -47 -37 -72q-27 -27 -80 -26q-66 0 -92 34q-31 37 -31 105z" />
<glyph unicode="&#xaa;" horiz-adv-x="434" d="M-25 1036q0 83 50 117q51 35 118 47q23 8 58 8q84 12 84 52q0 31 -31 38q-35 10 -53 11q-68 0 -80 -41h-129q8 59 49 100q49 47 152 47q113 0 163 -39q59 -35 60 -108v-176q0 -160 -99 -191q-92 -29 -165 -29q-76 0 -125 37q-52 39 -52 127zM100 1040q0 -29 21 -49 q23 -14 47 -14q57 0 88 31q33 33 33 88v49q-4 -2 -17.5 -7t-21.5 -10q-16 -8 -37 -8l-49 -12q-33 -10 -47 -25q-17 -27 -17 -43z" />
<glyph unicode="&#xad;" horiz-adv-x="575" d="M0 420v117q0 106 109 106h444v-223h-553z" />
<glyph unicode="&#xae;" horiz-adv-x="479" d="M0 1192q0 29 8 63q0 2 10 27q8 20 15 31q27 55 84 80q49 31 110 30q53 0 88 -18q45 -23 76 -53q37 -31 49 -72q20 -47 21 -88q0 -47 -21 -88q-23 -45 -49 -72q-35 -37 -76 -51q-59 -16 -88 -16q-51 0 -88 18q-31 12 -76 49q-33 41 -47 76q-16 39 -16 84zM37 1192 q0 -27 14 -72q6 -14 41 -59q23 -25 64 -45q37 -12 71.5 -12t71.5 12q45 25 66 45q25 25 38 59q16 33 17 72q0 41 -12 72q-25 45 -43.5 63.5t-61.5 44.5q-37 12 -76 12q-35 0 -71 -12q-10 -8 -31 -20.5t-29 -20.5q-23 -25 -45 -63q-14 -45 -14 -76zM131 1071v229q0 23 29 23 h96q45 0 59 -14q20 -14 21 -58q0 -27 -8 -34q-14 -20 -29 -25q20 -12 25 -16q8 -14 8 -35v-33v-10v-11q0 -6 2 -10q2 -6 10 -6h-59l-2 6q-2 4 -2 10v7v10v29q-4 8 -8.5 18t-4.5 12q-8 8 -28 8h-56v-100h-53zM184 1217h64q20 0 28 8q8 2 9 22q0 23 -9 25q-12 12 -28 12h-64 v-67z" />
<glyph unicode="&#xb1;" horiz-adv-x="790" d="M0 219v66q0 88 88 88h668v-154h-756zM0 768v68q0 27 20.5 53t67.5 26h197v256h96q88 0 88 -88v-168h287v-147h-287v-256h-184v256h-285z" />
<glyph unicode="&#xb2;" horiz-adv-x="342" d="M0 961q0 55 33 110q25 41 80 80q3 0 12 6q4 2 9 7t9 7q88 55 88 101q0 33 -16 49q-14 14 -51 14q-41 0 -51 -18q-20 -27 -21 -62v-4h-49q-40 0 -31 49q12 45 39 72q43 43 121 43q66 0 113 -39q43 -40 43 -104q0 -43 -25 -80q-27 -37 -84 -76l-57 -37q-35 -23 -35 -39h197 v-79h-324z" />
<glyph unicode="&#xb3;" horiz-adv-x="346" d="M4 1100v4h88q0 -37 17 -60q23 -16 55 -16q35 0 51 16q20 12 21 52q0 33 -21 53q-29 14 -68 14h-2h-2h-6h-2v62h8q47 0 62 14q18 18 18 49q0 25 -14 39q-16 16 -45 16q-27 0 -47 -20q-16 -12 -17 -47v-4h-49q-40 0 -31 49q4 33 31 59q37 35 117 35q68 0 108 -35 q39 -31 39 -88q0 -29 -12 -53q-33 -33 -43 -35q29 -12 55 -41q16 -29 17 -63q0 -72 -43 -109q-53 -39 -125 -39q-82 0 -121 39q-39 31 -39 109z" />
<glyph unicode="&#xb4;" horiz-adv-x="391" d="M0 1163l113 205q16 23 26 31q18 16 58 16h180l-246 -252h-131z" />
<glyph unicode="&#xb5;" horiz-adv-x="915" d="M0 -381v997v375h260v-631q0 -92 55 -135q53 -41 125 -41q63 0 117 41q55 43 55 135v508q0 49 37 86t90 37h138v-579q0 -267 -142 -351q-139 -82 -303 -81q-18 2 -48 5t-42 3q-41 2 -82 12v-252q0 -51 -39 -90t-86 -39h-135z" />
<glyph unicode="&#xb9;" horiz-adv-x="559" d="M0 928v200q88 0 182 58q92 55 129 190h80q57 0 103 -41q43 -41 43 -98v-1237h-277v928h-260z" />
<glyph unicode="&#xba;" horiz-adv-x="471" d="M-25 1149q0 123 62 190q49 61 127 70q90 10 147 -8q76 -31 109 -105q33 -66 33 -151q0 -120 -50 -184q-49 -66 -118 -80q-61 -20 -131 -4t-107 51q-72 78 -72 221zM104 1137q2 -88 35 -121q27 -33 103 -31q78 4 77 160q0 143 -75.5 149t-100.5 -22q-41 -47 -39 -135z" />
<glyph unicode="&#xbc;" horiz-adv-x="831" d="M0 0l592 1020q16 33 43 39q25 6 57 6h35l-614 -1065h-113zM33 889v76q37 0 71.5 22.5t51.5 77.5h28q55 0 56 -57v-480h-109v361h-98zM391 121v94l201 322h84q55 0 55 -58v-30v-240h66v-88h-66v-121h-106v121h-234zM475 205h150v235z" />
<glyph unicode="&#xbd;" horiz-adv-x="823" d="M0 0l592 1020q16 33 43 39q25 6 57 6h35l-614 -1065h-113zM33 889v76q37 0 71.5 22.5t51.5 77.5h28q55 0 56 -57v-480h-109v361h-98zM395 0q0 68 41 131q25 43 96 96q14 14 35 25q109 68 109 121q0 33 -25 55q-20 25 -55 25q-41 0 -64 -29q-25 -25 -24 -72v-8h-55 q-53 0 -41 59q10 49 45 89q57 53 143 53t135 -49q53 -49 53 -123q0 -59 -28 -92q-25 -45 -101 -93q-31 -27 -67 -47q-41 -23 -43 -45h235v-96h-389z" />
<glyph unicode="&#xbe;" horiz-adv-x="950" d="M0 688h104q0 -45 23 -67q23 -20 66 -20.5t63 20.5q25 25 25 59q0 37 -29 59q-25 25 -76 25q-4 0 -6 -2l-2 -2h-6h-2v76h12q41 0 68 16q25 25 24 55q0 33 -20 54q-16 16 -51 16q-45 0 -58 -21q-18 -18 -18 -59v-4h-58q-55 0 -39 55q12 45 39 72q51 45 138 45q74 0 131 -41 q49 -43 49 -109q0 -37 -17 -59q-16 -31 -53 -45q51 -27 66 -51q23 -29 22 -76q0 -80 -55 -129q-61 -43 -147 -43q-90 0 -146 43q-47 47 -47 133zM117 0l588 1020q23 33 45 39q25 6 59 6h31l-617 -1065h-106zM508 121v94l201 322h79q55 0 56 -58v-30v-240h63v-88h-63v-121 h-105v121h-231zM592 205h147v235z" />
<glyph unicode="&#xbf;" horiz-adv-x="935" d="M-25 348q0 104 70 111q71 6 178 6q2 -113 58 -168q61 -78 192 -57q135 22 135 184q0 72 -43 121q-41 47 -100 94q-123 94 -143 170q-23 80 -23 207h254v-21v-14q-4 -100 49 -147q78 -70 119 -103q61 -49 117 -121q55 -71 55 -202q0 -170 -94 -265q-96 -96 -228 -127 q-129 -25 -268 -2q-133 20 -219 107q-47 37 -78 100q-31 61 -31 127zM293 1239v176h274v-274h-176q-98 0 -98 98z" />
<glyph unicode="&#xc0;" d="M0 0l457 1284q37 92 135 92h223l502 -1376h-301l-92 285h-537l-88 -285h-299zM399 1724h176q63 0 84 -49l113 -202h-133zM465 516h383l-193 584z" />
<glyph unicode="&#xc1;" d="M0 0l457 1284q37 92 135 92h223l502 -1376h-301l-92 285h-537l-88 -285h-299zM465 516h383l-193 584zM596 1473l113 202q16 49 84 49h180l-246 -251h-131z" />
<glyph unicode="&#xc2;" d="M0 0l457 1284q37 92 135 92h223l502 -1376h-301l-92 285h-537l-88 -285h-299zM381 1473l127 151q66 84 151 84q84 0 152 -84l129 -151h-164l-121 135l-84 -92q-25 -25 -41 -33q-20 -10 -55 -10h-94zM465 516h383l-193 584z" />
<glyph unicode="&#xc3;" d="M0 0l457 1284q37 92 135 92h223l502 -1376h-301l-92 285h-537l-88 -285h-299zM408 1473v106q0 61 63 92q51 16 109 -4q14 -4 55 -18.5l63 -22.5q66 -25 113 -27q53 -2 96 50q0 -72 -6 -121q-6 -47 -70 -60q-53 -12 -114 13q-31 12 -117 41q-57 18 -108 16q-55 -4 -84 -65 zM465 516h383l-193 584z" />
<glyph unicode="&#xc4;" d="M0 0l457 1284q37 92 135 92h223l502 -1376h-301l-92 285h-537l-88 -285h-299zM385 1473v184h115q68 0 67 -70v-114h-182zM465 516h383l-193 584zM748 1473v184h116q63 0 64 -70v-114h-180z" />
<glyph unicode="&#xc5;" horiz-adv-x="1382" d="M8 0l457 1280q31 92 135 92h223l498 -1372h-297l-96 276h-533l-92 -276h-295zM471 508h381l-193 588zM516 1561q0 25 12 55q16 35 31 45q12 15 49 31q25 12 56 12q27 0 57 -12q33 -16 47 -31q16 -14 33 -45q10 -27 10 -55q0 -37 -10 -58q-12 -31 -33 -47q-25 -25 -47 -33 q-31 -12 -57 -12q-20 0 -48 8q-35 18 -49 29q-25 12 -39 47q-12 29 -12 66zM588 1561q0 -39 20 -62q23 -23 56 -22q35 0 57 22q18 20 18 62q0 31 -18 55q-25 25 -57 24q-31 0 -56 -24q-20 -26 -20 -55z" />
<glyph unicode="&#xc6;" horiz-adv-x="2142" d="M0 0l877 1280q27 43 71 66q53 27 92 26h224h743v-239h-715v-293h537v-88q-2 -57 -47 -103q-41 -41 -103 -41h-387v-356h752v-252h-805h-227v285h-533l-182 -285h-297zM633 512h379v164v420z" />
<glyph unicode="&#xc7;" horiz-adv-x="1286" d="M-25 688q0 360 168 541q172 186 496 186q266 0 422 -131q147 -129 168 -360h-172q-96 0 -137 84q-28 52 -68 92q-78 59 -213 59q-182 0 -283 -119q-96 -121 -96 -352q0 -223 96 -344q94 -125 277 -125q127 0 211 66q80 63 108 190h277q-23 -240 -180 -375 q-164 -133 -433 -133q-313 0 -477 189q-164 182 -164 532zM332 -156q0 63 71 93q53 23 115 0l125 -43q65 -22 123 -25q61 -4 102 43q0 -71 -6 -129q-6 -59 -78 -76q-53 -8 -120 17l-125 45q-57 20 -117 16q-51 -2 -90 -74v133z" />
<glyph unicode="&#xc8;" horiz-adv-x="1046" d="M0 0v1233q0 57 43 100t100 43h856v-235h-718v-297h534v-92q0 -61 -41 -102.5t-102 -41.5h-391v-352h718v-256h-999zM256 1724h180q31 0 51 -18q14 -12 33 -31l113 -202h-133z" />
<glyph unicode="&#xc9;" horiz-adv-x="1046" d="M0 0v1233q0 57 43 100t100 43h856v-235h-718v-297h534v-92q0 -61 -41 -102.5t-102 -41.5h-391v-352h718v-256h-999zM453 1473l110 202q12 16 29 31q23 18 55 18h180l-243 -251h-131z" />
<glyph unicode="&#xca;" horiz-adv-x="1046" d="M0 0v1233q0 57 43 100t100 43h856v-235h-718v-297h534v-92q0 -61 -41 -102.5t-102 -41.5h-391v-352h718v-256h-999zM256 1473l129 151q66 84 156 84q80 0 147 -84l127 -151h-160l-123 135l-79 -92q-23 -25 -45 -33q-25 -10 -56 -10h-96z" />
<glyph unicode="&#xcb;" horiz-adv-x="1046" d="M0 0v1233q0 57 43 100t100 43h856v-235h-718v-297h534v-92q0 -61 -41 -102.5t-102 -41.5h-391v-352h718v-256h-999zM227 1473v184h113q68 0 68 -70v-114h-181zM592 1473v184h113q68 0 67 -70v-114h-180z" />
<glyph unicode="&#xcc;" horiz-adv-x="294" d="M-143 1724h176q35 0 53 -18l31 -31l110 -202h-131zM0 0v1233q0 57 43 100t100 43h142v-1376h-285z" />
<glyph unicode="&#xcd;" horiz-adv-x="471" d="M0 0v1233q0 57 43 100t100 43h142v-1376h-285zM80 1473l113 202q16 49 83 49h177l-240 -251h-133z" />
<glyph unicode="&#xce;" horiz-adv-x="438" d="M-131 1473l127 151q61 84 147 84q82 0 154 -84l123 -151h-160l-121 135l-84 -92q-43 -43 -96 -43h-90zM0 0v1233q0 57 43 100t100 43h142v-1376h-285z" />
<glyph unicode="&#xcf;" horiz-adv-x="479" d="M-84 1473v184h113q68 0 67 -70v-114h-180zM43 0v1233q0 57 43 100t102 43h140v-1376h-285zM276 1473v184h115q70 0 70 -70v-114h-185z" />
<glyph unicode="&#xd0;" horiz-adv-x="1515" d="M0 596v180h281v453q0 57 41 98q45 45 102 45h391q316 0 473 -172q156 -168 156 -516q0 -193 -60 -332q-55 -143 -163 -227q-84 -70 -189 -96q-98 -29 -293 -29h-458v596h-281zM555 248h225q195 0 287 104q88 102 88 332q0 231 -84 340t-256 109h-260v-357h158 q119 0 118 -121v-59h-276v-348z" />
<glyph unicode="&#xd1;" horiz-adv-x="1191" d="M0 0v1233q0 57 43 100t100 43h154l559 -944v944h281v-1376h-293l-563 948v-948h-281zM348 1481v106q0 63 64 88q49 16 108 -2q72 -20 119 -39q66 -25 111 -26q55 -3 98 49q0 -72 -6 -121q-6 -47 -70 -59q-55 -12 -117 12q-41 16 -114 41q-57 18 -109 16q-55 -4 -84 -65z " />
<glyph unicode="&#xd2;" d="M-25 688q0 334 177 533q186 195 491 194.5t494 -194.5q180 -199 180 -533t-180 -528q-186 -193 -494 -193q-309 0 -491 193q-177 192 -177 528zM260 688q0 -233 100 -352q102 -123 282.5 -123t285.5 123q104 129 104 352q0 224 -104 356q-104 123 -284.5 123t-283.5 -123 q-100 -120 -100 -356zM315 1724h181q33 0 53 -18l31 -31l108 -202h-129z" />
<glyph unicode="&#xd3;" d="M-25 688q0 334 177 533q186 195 491 194.5t494 -194.5q180 -199 180 -533t-180 -528q-186 -193 -494 -193q-309 0 -491 193q-177 192 -177 528zM260 688q0 -233 100 -352q102 -123 282.5 -123t285.5 123q104 129 104 352q0 224 -104 356q-104 123 -284.5 123t-283.5 -123 q-100 -120 -100 -356zM541 1473l110 202q16 49 84 49h176l-243 -251h-127z" />
<glyph unicode="&#xd4;" d="M-25 688q0 334 177 533q186 195 491 194.5t494 -194.5q180 -199 180 -533t-180 -528q-186 -193 -494 -193q-309 0 -491 193q-177 192 -177 528zM260 688q0 -233 100 -352q102 -123 282.5 -123t285.5 123q104 129 104 352q0 224 -104 356q-104 123 -284.5 123t-283.5 -123 q-100 -120 -100 -356zM365 1473l127 151q66 84 155 84q82 0 150 -84l127 -151h-160l-125 135l-80 -92q-25 -25 -43 -33q-25 -10 -55 -10h-96z" />
<glyph unicode="&#xd5;" d="M-25 688q0 334 177 533q186 195 491 194.5t494 -194.5q180 -199 180 -533t-180 -528q-186 -193 -494 -193q-309 0 -491 193q-177 192 -177 528zM260 688q0 -233 100 -352q102 -123 282.5 -123t285.5 123q104 129 104 352q0 224 -104 356q-104 123 -284.5 123t-283.5 -123 q-100 -120 -100 -356zM391 1473v106q0 61 70 92q49 16 106 -4q14 -4 55.5 -18.5l63.5 -22.5q66 -25 113 -27q55 -3 98 50q0 -78 -8 -121q-8 -47 -70 -60q-53 -12 -114 13q-25 10 -67 24.5t-52 18.5q-53 20 -109 16q-49 -2 -86 -67z" />
<glyph unicode="&#xd6;" d="M-25 688q0 334 177 533q186 195 491 194.5t494 -194.5q180 -199 180 -533t-180 -528q-186 -193 -494 -193q-309 0 -491 193q-177 192 -177 528zM260 688q0 -233 100 -352q102 -123 282.5 -123t285.5 123q104 129 104 352q0 224 -104 356q-104 123 -284.5 123t-283.5 -123 q-100 -120 -100 -356zM373 1473v184h110q70 0 70 -70v-114h-180zM735 1473v184h113q68 0 67 -70v-114h-180z" />
<glyph unicode="&#xd8;" horiz-adv-x="1386" d="M-33 0l160 188q-152 186 -152 500q0 334 177 533q186 195 491 194q264 0 432 -143l92 108h156l-164 -192q158 -188 158 -500q0 -334 -180 -528q-186 -193 -494 -193q-264 0 -430 137l-92 -104h-154zM260 688q0 -168 55 -285l584 668q-96 96 -256 96q-180 0 -283 -123 q-100 -120 -100 -356zM387 307q94 -94 256 -94q180 0 285 123q104 129 104 352q0 176 -59 289z" />
<glyph unicode="&#xd9;" horiz-adv-x="1155" d="M0 487v750q0 55 43 98q45 45 100 45h146v-860q0 -162 59 -235q66 -72 205 -72q135 0 203 72q63 70 63 235v860h285v-893q0 -256 -143 -387q-133 -133 -408 -133q-276 0 -410 133q-143 131 -143 387zM289 1724h180q31 0 51 -18q14 -12 33 -31l111 -202h-132z" />
<glyph unicode="&#xda;" horiz-adv-x="1155" d="M0 487v742q0 57 43 104t100 47h146v-860q0 -162 59 -235q66 -72 205 -72q135 0 203 72q63 70 63 235v860h285v-893q0 -256 -143 -387q-133 -133 -408 -133q-276 0 -410 133q-143 131 -143 387zM449 1473l106 202q12 16 29 31q23 18 55 18h180l-244 -251h-126z" />
<glyph unicode="&#xdb;" horiz-adv-x="1155" d="M0 487v750q0 55 43 98q45 45 100 45h146v-860q0 -162 59 -235q66 -72 205 -72q135 0 203 72q63 70 63 235v860h285v-893q0 -256 -143 -387q-133 -133 -408 -133q-276 0 -410 133q-143 131 -143 387zM272 1473l127 151q66 84 154 84q84 0 152 -84l126 -151h-159l-123 135 l-84 -92q-23 -23 -43.5 -33t-52.5 -10h-97z" />
<glyph unicode="&#xdc;" horiz-adv-x="1155" d="M0 487v750q0 55 43 98q45 45 100 45h146v-860q0 -162 59 -235q66 -72 205 -72q135 0 203 72q63 70 63 235v860h285v-893q0 -256 -143 -387q-133 -133 -408 -133q-276 0 -410 133q-143 131 -143 387zM281 1473v184h110q70 0 70 -70v-114h-180zM643 1473v184h113 q68 0 67 -70v-114h-180z" />
<glyph unicode="&#xdd;" horiz-adv-x="1294" d="M487 1536l113 205q16 23 26 31q18 16 58 16h180l-246 -252h-131zM0 1376h348l291 -592l238 512q41 80 131 80h229l-453 -864v-512h-284v512z" />
<glyph unicode="&#xde;" horiz-adv-x="778" d="M0 0v1372q61 0 127 -8q74 -9 74 -92v-207q53 23 110 27q74 4 117 4q156 0 235.5 -129t79.5 -283q0 -152 -79 -281q-78 -127 -236 -127q-43 0 -117 5q-57 4 -110 26v-207q0 -83 -74 -92q-66 -8 -127 -8zM193 688q0 -96 51 -159.5t129 -63.5q70 0 125 63q55 65 55 160 q0 94 -55 158q-55 66 -125 65q-76 0 -129 -65q-51 -64 -51 -158z" />
<glyph unicode="&#xdf;" horiz-adv-x="1179" d="M0 -172v1128q3 190 141 326q135 133 330 133h176q211 0 322 -92q111 -90 110 -256q0 -104 -43 -174q-43 -68 -121 -109q98 -41 156 -125q53 -78 53 -198q0 -205 -129 -309q-133 -109 -370 -109h-222v250h201q121 0 172 39q55 41 55 137q0 90 -51 139q-51 39 -176 39h-201 v238h189q104 0 151 35q53 37 53.5 112.5t-48.5 112.5q-51 31 -156 31h-84q-125 0 -180.5 -76t-55.5 -156v-1116h-272z" />
<glyph unicode="&#xe0;" horiz-adv-x="915" d="M-25 315q0 169 99 240q100 72 250 96q22 0 49 6q35 8 63 11q176 25 176 104q0 59 -61.5 77.5t-114.5 18.5q-55 0 -100 -16q-41 -14 -64 -59h-268q14 121 113 202q108 92 307 92q227 0 336 -75q117 -80 117 -224v-364q0 -160 -60 -250q-61 -92 -137 -131q-86 -45 -178 -53 q-106 -10 -166 -10q-143 0 -252 77.5t-109 257.5zM164 1411h176q37 0 55 -16q16 -14 29 -31l113 -205h-129zM236 324q0 -59 36 -97q37 -31 105 -30q113 0 176 63.5t63 175.5v101q-59 -31 -155 -54l-92 -18q-74 -23 -105 -53q-28 -45 -28 -88z" />
<glyph unicode="&#xe1;" horiz-adv-x="915" d="M-25 315q0 169 99 240q100 72 250 96q22 0 49 6q35 8 63 11q176 25 176 104q0 59 -61.5 77.5t-114.5 18.5q-55 0 -100 -16q-41 -14 -64 -59h-268q14 121 113 202q108 92 307 92q227 0 336 -75q117 -80 117 -224v-364q0 -160 -60 -250q-61 -92 -137 -131q-86 -45 -178 -53 q-106 -10 -166 -10q-143 0 -252 77.5t-109 257.5zM236 324q0 -59 36 -97q37 -31 105 -30q113 0 176 63.5t63 175.5v101q-59 -31 -155 -54l-92 -18q-74 -23 -105 -53q-28 -45 -28 -88zM332 1159l112 205q16 23 27 31q18 16 57 16h181l-244 -252h-133z" />
<glyph unicode="&#xe2;" horiz-adv-x="915" d="M-25 315q0 169 99 240q100 72 250 96q22 0 49 6q35 8 63 11q176 25 176 104q0 59 -61.5 77.5t-114.5 18.5q-55 0 -100 -16q-41 -14 -64 -59h-268q14 121 113 202q108 92 307 92q227 0 336 -75q117 -80 117 -224v-364q0 -160 -60 -250q-61 -92 -137 -131q-86 -45 -178 -53 q-106 -10 -166 -10q-143 0 -252 77.5t-109 257.5zM143 1159l129 154q61 80 152 80q88 0 151 -80l130 -154h-164l-121 133l-84 -88q-29 -29 -41 -35q-20 -10 -55 -10h-97zM236 324q0 -59 36 -97q37 -31 105 -30q113 0 176 63.5t63 175.5v101q-59 -31 -155 -54l-92 -18 q-74 -23 -105 -53q-28 -45 -28 -88z" />
<glyph unicode="&#xe3;" horiz-adv-x="915" d="M-25 315q0 169 99 240q100 72 250 96q22 0 49 6q35 8 63 11q176 25 176 104q0 59 -61.5 77.5t-114.5 18.5q-55 0 -100 -16q-41 -14 -64 -59h-268q14 121 113 202q108 92 307 92q227 0 336 -75q117 -80 117 -224v-364q0 -160 -60 -250q-61 -92 -137 -131q-86 -45 -178 -53 q-106 -10 -166 -10q-143 0 -252 77.5t-109 257.5zM172 1159v105q0 68 68 92q51 16 108 -4l58.5 -19.5l60.5 -19.5q59 -23 111 -25q55 -4 94 47q0 -74 -6.5 -121t-65.5 -59q-55 -12 -117 12q-74 29 -116 43q-61 18 -111 17q-53 -5 -84 -68zM236 324q0 -59 36 -97 q37 -31 105 -30q113 0 176 63.5t63 175.5v101q-59 -31 -155 -54l-92 -18q-74 -23 -105 -53q-28 -45 -28 -88z" />
<glyph unicode="&#xe4;" horiz-adv-x="915" d="M-25 315q0 169 99 240q100 72 250 96q22 0 49 6q35 8 63 11q176 25 176 104q0 59 -61.5 77.5t-114.5 18.5q-55 0 -100 -16q-41 -14 -64 -59h-268q14 121 113 202q108 92 307 92q227 0 336 -75q117 -80 117 -224v-364q0 -160 -60 -250q-61 -92 -137 -131q-86 -45 -178 -53 q-106 -10 -166 -10q-143 0 -252 77.5t-109 257.5zM152 1159v180h112q68 0 68 -67v-113h-180zM236 324q0 -59 36 -97q37 -31 105 -30q113 0 176 63.5t63 175.5v101q-59 -31 -155 -54l-92 -18q-74 -23 -105 -53q-28 -45 -28 -88zM516 1159v180h113q68 0 67 -67v-113h-180z" />
<glyph unicode="&#xe5;" horiz-adv-x="915" d="M-25 319q0 169 99 240q100 72 250 96q22 0 49 7q35 8 63 10q176 25 176 104q0 59 -61.5 77.5t-114.5 18.5q-55 0 -100 -16q-41 -14 -64 -59h-268q14 121 113 202q108 92 307 93q227 0 336 -76q117 -80 117 -223v-365q0 -160 -60 -250q-61 -92 -137 -131 q-111 -57 -270 -65q-163 -9 -271 43q-164 83 -164 294zM236 328q0 -59 36 -97q43 -31 105 -30q113 0 176 63.5t63 175.5v101q-59 -31 -155 -54q-39 -8 -80 -15l-12 -3q-53 -14 -97 -49q-36 -31 -36 -92zM285 1296q0 25 12 56q16 35 31 45q12 15 49 30q28 12 55 13 q31 0 55 -13q37 -18 50 -30q14 -10 30 -45q12 -31 13 -56q0 -33 -13 -57q-14 -35 -30 -47q-23 -23 -50 -33q-20 -10 -55 -10q-27 0 -47 10q-31 4 -45 25q-27 14 -41 49q-14 22 -14 63zM356 1296q0 -37 21 -59q25 -25 55 -25q31 0 55 25q20 23 21 59q0 29 -21 56 q-25 25 -55 24q-31 0 -55 -24q-21 -27 -21 -56z" />
<glyph unicode="&#xe6;" horiz-adv-x="1646" d="M-25 307q0 164 99 236q96 70 245 94q35 0 52 2q25 3 61 12q180 14 180 101q0 35 -14 43l-35 20q-39 29 -131 29q-76 0 -129 -33q-18 -18 -31 -43h-268q16 129 109 201q117 92 311 92q219 0 332 -78q6 -4 12 -9t10 -7t7 -4l3 -2q115 100 299 100q231 0 361 -141 q125 -147 125 -404v-27v-18v-12v-10h-676q0 -119 55 -181q55 -63 152 -63q63 0 117 26q41 31 67 88h273q-43 -162 -168 -251q-119 -88 -301 -88q-207 0 -332 124q-104 -84 -244 -104q-135 -20 -231 -20q-156 0 -234 83q-76 78 -76 244zM236 311q0 -61 36 -88q35 -35 101 -35 q115 0 176 64q68 68 67 172v100q-72 -39 -155 -53q-39 -10 -72 -14l-20 -4q-74 -23 -105 -54q-28 -29 -28 -88zM897 625h395q0 92 -53 155q-51 51 -147 51q-88 0 -140 -51q-53 -61 -55 -155z" />
<glyph unicode="&#xe7;" horiz-adv-x="983" d="M-25 541q0 252 125 399q129 147 357 147q240 0 370 -143q76 -96 105 -205h-281q-27 49 -39 62q-52 55 -147 55q-90 0 -146 -55q-72 -82 -71.5 -264.5t71.5 -260.5q51 -63 156 -63q70 0 117 27q10 2 22 14l23 22q8 10 30.5 31t71.5 21h201q-41 -164 -168 -256 q-123 -92 -311 -92q-227 0 -357 147q-129 144 -129 414zM231 -121q0 71 68 92q49 20 109 0q14 -4 55 -18t63 -23q59 -23 112.5 -24.5t96.5 47.5q0 -72 -6 -121q-6 -47 -70 -59q-53 -12 -114 12q-25 10 -67 24.5t-52 18.5q-59 23 -108.5 18.5t-86.5 -69.5v102z" />
<glyph unicode="&#xe8;" horiz-adv-x="999" d="M-25 541q0 252 125 399q129 147 357 147q240 0 370 -143q129 -147 129 -412v-28v-17q0 -14 -4 -26h-692q2 -121 59 -185q51 -63 156 -63q70 0 117 27q10 2 22 14l23 22q2 8 29 31q23 20 73 21h201q-41 -164 -168 -256q-123 -92 -311 -92q-227 0 -357 147 q-129 144 -129 414zM205 1411h176q37 0 55 -16q14 -12 33 -31l106 -205h-126zM260 639h408q-10 113 -56 162q-52 55 -147 55q-90 0 -145.5 -55.5t-59.5 -161.5z" />
<glyph unicode="&#xe9;" horiz-adv-x="999" d="M-25 541q0 252 125 399q129 147 357 147q240 0 370 -143q129 -147 129 -412v-28v-17q0 -14 -4 -26h-692q2 -121 59 -185q51 -63 156 -63q70 0 117 27q10 2 22 14l23 22q2 8 29 31q23 20 73 21h201q-41 -164 -168 -256q-123 -92 -311 -92q-227 0 -357 147 q-129 144 -129 414zM260 639h408q-10 113 -56 162q-52 55 -147 55q-90 0 -145.5 -55.5t-59.5 -161.5zM373 1159l110 205q12 16 29 31q18 16 55 16h181l-244 -252h-131z" />
<glyph unicode="&#xea;" horiz-adv-x="999" d="M-25 541q0 252 125 399q129 147 357 147q240 0 370 -143q129 -147 129 -412v-28v-17q0 -14 -4 -26h-692q2 -121 59 -185q51 -63 156 -63q70 0 117 27q10 2 22 14l23 22q2 8 29 31q23 20 73 21h201q-41 -164 -168 -256q-123 -92 -311 -92q-227 0 -357 147 q-129 144 -129 414zM184 1159l127 154q61 80 154 80q88 0 151 -80l127 -154h-159l-123 133l-84 -88q-27 -27 -43 -35q-20 -10 -53 -10h-97zM260 639h408q-10 113 -56 162q-52 55 -147 55q-90 0 -145.5 -55.5t-59.5 -161.5z" />
<glyph unicode="&#xeb;" horiz-adv-x="999" d="M-25 541q0 252 125 399q129 147 357 147q240 0 370 -143q129 -147 129 -412v-28v-17q0 -14 -4 -26h-692q2 -121 59 -185q51 -63 156 -63q70 0 117 27q10 2 22 14l23 22q2 8 29 31q23 20 73 21h201q-41 -164 -168 -256q-123 -92 -311 -92q-227 0 -357 147 q-129 144 -129 414zM193 1159v180h110q70 0 70 -67v-113h-180zM260 639h408q-10 113 -56 162q-52 55 -147 55q-90 0 -145.5 -55.5t-59.5 -161.5zM555 1159v180h113q68 0 67 -67v-113h-180z" />
<glyph unicode="&#xec;" horiz-adv-x="362" d="M-156 1409h172q33 0 56 -16q16 -10 28 -29l113 -205h-133zM25 0v1065h143q55 0 96 -41q39 -39 39 -96v-928h-278z" />
<glyph unicode="&#xed;" horiz-adv-x="362" d="M25 0v1065h143q55 0 96 -41q39 -39 39 -96v-928h-278zM76 1159l108 205q12 18 29 29q23 16 55 16h181l-244 -250h-129z" />
<glyph unicode="&#xee;" horiz-adv-x="362" d="M-113 1159l129 150q61 84 152 84q80 0 151 -84l125 -150h-159l-125 133l-80 -92q-41 -41 -96 -41h-97zM25 0v1065h143q55 0 96 -41q39 -39 39 -96v-928h-278z" />
<glyph unicode="&#xef;" horiz-adv-x="362" d="M-104 1159v180h112q68 0 68 -67v-113h-180zM29 0v1065h139q55 0 96 -41q39 -39 39 -96v-928h-274zM256 1159v180h117q63 0 63 -67v-113h-180z" />
<glyph unicode="&#xf1;" horiz-adv-x="970" d="M0 0v625q0 270 141 362q139 90 316 100q176 0 323.5 -92t147.5 -370v-625h-140q-59 0 -98 39t-39 96v545q0 96 -57 139q-61 45 -129 45q-72 0 -129 -45q-55 -43 -55 -139v-680h-281zM215 1155v109q0 61 66 92q49 16 106 -4l58.5 -19.5l60.5 -19.5q59 -23 112 -25 q57 -4 99 47q0 -74 -6 -123t-72 -61q-53 -12 -115 12l-116 45q-51 20 -109 17q-53 -4 -84 -70z" />
<glyph unicode="&#xf2;" horiz-adv-x="999" d="M-25 545q0 108 31 215q33 113 94 180q104 119 269 141q168 23 295 -24q156 -63 225 -209q68 -132 67 -307q0 -125 -28 -222q-27 -90 -72 -159q-102 -133 -244 -160q-131 -37 -266 -6q-133 31 -215 102q-82 70 -119 195q-37 123 -37 254zM205 1411h180q33 0 51 -16 q14 -12 33 -31l106 -205h-126zM248 526q10 -186 67 -254q29 -37 84 -55q63 -23 123 -4q61 18 111 90q47 70 51 234q0 145 -45 215q-47 72 -106.5 92t-121 1.5t-87.5 -44.5q-84 -95 -76 -275z" />
<glyph unicode="&#xf3;" horiz-adv-x="999" d="M-25 545q0 108 31 215q33 113 94 180q104 119 269 141q168 23 295 -24q156 -63 225 -209q68 -132 67 -307q0 -125 -28 -222q-27 -90 -72 -159q-102 -133 -244 -160q-131 -37 -266 -6q-133 31 -215 102q-82 70 -119 195q-37 123 -37 254zM248 526q10 -186 67 -254 q29 -37 84 -55q63 -23 123 -4q61 18 111 90q47 70 51 234q0 145 -45 215q-47 72 -106.5 92t-121 1.5t-87.5 -44.5q-84 -95 -76 -275zM373 1159l110 205q12 16 29 31q18 16 55 16h181l-244 -252h-131z" />
<glyph unicode="&#xf4;" horiz-adv-x="999" d="M-25 545q0 108 31 215q33 113 94 180q104 119 269 141q168 23 295 -24q156 -63 225 -209q68 -132 67 -307q0 -125 -28 -222q-27 -90 -72 -159q-102 -133 -244 -160q-131 -37 -266 -6q-133 31 -215 102q-82 70 -119 195q-37 123 -37 254zM184 1159l127 154q61 80 154 80 q88 0 151 -80l127 -154h-159l-123 133l-84 -88q-27 -27 -43 -35q-20 -10 -53 -10h-97zM248 526q10 -186 67 -254q29 -37 84 -55q63 -23 123 -4q61 18 111 90q47 70 51 234q0 145 -45 215q-47 72 -106.5 92t-121 1.5t-87.5 -44.5q-84 -95 -76 -275z" />
<glyph unicode="&#xf5;" horiz-adv-x="999" d="M-25 545q0 108 31 215q33 113 94 180q104 119 269 141q168 23 295 -24q156 -63 225 -209q68 -132 67 -307q0 -125 -28 -222q-27 -90 -72 -159q-102 -133 -244 -160q-131 -37 -266 -6q-133 31 -215 102q-82 70 -119 195q-37 123 -37 254zM213 1159v105q0 68 68 92 q49 16 106 -4l58.5 -19.5l60.5 -19.5q59 -23 112 -25q57 -4 99 47q0 -74 -6 -121t-72 -59q-53 -12 -115 12q-66 27 -118 43q-61 18 -109 17q-53 -5 -84 -68zM248 526q10 -186 67 -254q29 -37 84 -55q63 -23 123 -4q61 18 111 90q47 70 51 234q0 145 -45 215 q-47 72 -106.5 92t-121 1.5t-87.5 -44.5q-84 -95 -76 -275z" />
<glyph unicode="&#xf6;" horiz-adv-x="999" d="M-25 545q0 108 31 215q33 113 94 180q104 119 269 141q168 23 295 -24q156 -63 225 -209q68 -132 67 -307q0 -125 -28 -222q-27 -90 -72 -159q-102 -133 -244 -160q-131 -37 -266 -6q-133 31 -215 102q-82 70 -119 195q-37 123 -37 254zM193 1159v180h110q70 0 70 -67 v-113h-180zM248 526q10 -186 67 -254q29 -37 84 -55q63 -23 123 -4q61 18 111 90q47 70 51 234q0 145 -45 215q-47 72 -106.5 92t-121 1.5t-87.5 -44.5q-84 -95 -76 -275zM555 1159v180h113q68 0 67 -67v-113h-180z" />
<glyph unicode="&#xf7;" horiz-adv-x="946" d="M0 592v96q0 88 88 88h815v-184h-903zM319 387q0 51 39 90t95 39q127 0 127 -129q0 -55 -37 -92q-39 -39 -90 -39q-55 0 -94.5 39t-39.5 92zM319 981q0 47 39 90q37 41 95 41q53 0 90 -41q37 -39 37 -90q0 -53 -37 -90q-39 -39 -90 -39q-55 0 -94.5 39t-39.5 90z" />
<glyph unicode="&#xf8;" horiz-adv-x="1050" d="M-76 0l144 172q-51 70 -74 170q-23 102 -23 202.5t33 215.5q31 111 92 180q104 119 269 141q168 23 294 -24q59 -23 121 -70l68 78h156l-144 -168q6 -8 12.5 -20.5t10.5 -18.5t6 -10q63 -133 63 -307q0 -125 -28 -222q-27 -88 -72 -155q-96 -133 -244 -164 q-119 -35 -252 -10q-127 25 -213 94l-67 -84h-152zM248 610q-12 -123 12 -219l348 402q-68 77 -159 61q-94 -16 -130 -53q-59 -66 -71 -191zM311 276q29 -35 84 -57q61 -25 123 -6.5t111 90.5q47 70 51 234q0 86 -16 139z" />
<glyph unicode="&#xf9;" horiz-adv-x="970" d="M0 440v625h281v-680q0 -98 55 -141t129 -43q71 0 129 43q57 43 57 141v543q0 53 39 96q37 41 98 41h140v-625q0 -285 -148 -372q-145 -88 -323 -88q-178 10 -316 96q-141 88 -141 364zM205 1411h180q37 0 53 -16l31 -31l111 -205h-131z" />
<glyph unicode="&#xfa;" horiz-adv-x="970" d="M0 440v625h281v-680q0 -98 55 -141t129 -43q71 0 129 43q57 43 57 141v543q0 53 39 96q37 41 98 41h140v-625q0 -285 -148 -372q-145 -88 -323 -88q-178 10 -316 96q-141 88 -141 364zM377 1159l110 205q2 10 27 31q18 16 57 16h177l-244 -252h-127z" />
<glyph unicode="&#xfb;" horiz-adv-x="970" d="M0 440v625h281v-680q0 -98 55 -141t129 -43q71 0 129 43q57 43 57 141v543q0 53 39 96q37 41 98 41h140v-625q0 -285 -148 -372q-145 -88 -323 -88q-178 10 -316 96q-141 88 -141 364zM184 1159l131 154q55 80 154 80q80 0 152 -80l122 -154h-159l-119 133l-84 -88 q-27 -27 -45 -35q-25 -10 -55 -10h-97z" />
<glyph unicode="&#xfc;" horiz-adv-x="970" d="M0 440v625h281v-680q0 -98 55 -141t129 -43q71 0 129 43q57 43 57 141v543q0 53 39 96q37 41 98 41h140v-625q0 -285 -148 -372q-145 -88 -323 -88q-178 10 -316 96q-141 88 -141 364zM193 1159v180h114q70 0 70 -67v-113h-184zM555 1159v180h113q68 0 67 -67v-113h-180z " />
<glyph unicode="&#xfd;" horiz-adv-x="1079" d="M385 1204l113 205q16 23 26 31q18 16 58 16h180l-246 -252h-131zM0 1065h307l217 -754l189 658q25 96 127 96h192l-407 -1212q-49 -133 -121 -189q-70 -49 -236 -49h-28h-27q-12 3 -31 6q-12 2 -30 2v221h75q80 0 127 37q29 23 29 66q0 26 -10 57z" />
<glyph unicode="&#xff;" horiz-adv-x="1079" d="M188 1200v49q0 31 63 68q2 2 10.5 7t12.5 9q2 2 10 9.5t13 11.5q20 33 30 88q4 18 -6 26.5t-37 8.5h-92v147q0 88 96 88h156v-227q0 -127 -63 -193q-70 -76 -193 -92zM587 1200v49q0 31 62 68q28 15 43 37q29 37 37 88q0 10 -6.5 22.5t-38.5 12.5h-93v147q0 88 93 88h159 v-227q0 -117 -63 -193q-70 -76 -193 -92zM0 1065h307l217 -754l189 658q25 96 127 96h192l-407 -1212q-49 -133 -121 -189q-70 -49 -236 -49h-28h-27q-12 3 -31 6q-12 2 -30 2v221h75q80 0 127 37q29 23 29 66q0 26 -10 57z" />
<glyph unicode="&#x152;" horiz-adv-x="2426" d="M1380 0v1233q0 57 43 100t100 43h856v-235h-718v-297h534v-92q0 -61 -41 -102.5t-102 -41.5h-391v-352h718v-256h-999zM-25 688q0 334 177 533q186 195 491 194.5t494 -194.5q180 -199 180 -533t-180 -528q-186 -193 -494 -193q-309 0 -491 193q-177 192 -177 528z M260 688q0 -233 100 -352q102 -123 282.5 -123t285.5 123q104 129 104 352q0 224 -104 356q-104 123 -284.5 123t-283.5 -123q-100 -120 -100 -356z" />
<glyph unicode="&#x153;" horiz-adv-x="1998" d="M974 541q0 252 125 399q129 147 357 147q240 0 370 -143q129 -147 129 -412v-28v-17q0 -14 -4 -26h-692q2 -121 59 -185q51 -63 156 -63q70 0 117 27q10 2 22 14l23 22q2 8 29 31q23 20 73 21h201q-41 -164 -168 -256q-123 -92 -311 -92q-227 0 -357 147 q-129 144 -129 414zM1259 639h408q-10 113 -56 162q-52 55 -147 55q-90 0 -145.5 -55.5t-59.5 -161.5zM-25 545q0 108 31 215q33 113 94 180q104 119 269 141q55 7 105 8q104 0 190 -32q156 -63 225 -209q68 -132 67 -307q0 -125 -28 -222q-27 -88 -72 -155 q-96 -133 -244 -164q-72 -20 -144 -20q-60 0 -122 14q-133 31 -215 102q-82 70 -119 195q-37 123 -37 254zM248 526q10 -186 67 -254q29 -37 84 -55q35 -12 69 -12l54 8q61 18 111 90q47 70 51 234q0 145 -45 215q-47 72 -107 92q-31 11 -62 11q-28 0 -58 -9 q-61 -18 -88 -45q-77 -85 -77 -241q0 -17 1 -34z" />
<glyph unicode="&#x178;" horiz-adv-x="1294" d="M289 1536v49q0 31 63 68q2 2 10.5 7t12.5 9q2 2 10 9.5t13 11.5q20 33 30 88q4 18 -6 26.5t-37 8.5h-92v147q0 88 96 88h156v-227q0 -127 -63 -193q-70 -76 -193 -92zM688 1536v49q0 31 62 68q28 15 43 37q29 37 37 88q0 10 -6.5 22.5t-38.5 12.5h-93v147q0 88 93 88h159 v-227q0 -117 -63 -193q-70 -76 -193 -92zM0 1376h348l291 -592l238 512q41 80 131 80h229l-453 -864v-512h-284v512z" />
<glyph unicode="&#x2c6;" horiz-adv-x="587" d="M0 1180l127 151q66 84 154 84q84 0 151 -84l127 -151h-164l-119 137l-83 -92q-27 -27 -43 -35q-20 -10 -54 -10h-96z" />
<glyph unicode="&#x2dc;" horiz-adv-x="458" d="M-281 127v121q0 74 72 98q57 23 123 0l131 -47q68 -27 127 -29t102 58q0 -102 -4 -140q-6 -53 -80 -65q-57 -12 -125 14q-72 27 -131 47q-63 20 -121 19q-55 -2 -94 -76z" />
<glyph unicode="&#x2000;" horiz-adv-x="1024" />
<glyph unicode="&#x2001;" horiz-adv-x="2048" />
<glyph unicode="&#x2002;" horiz-adv-x="1024" />
<glyph unicode="&#x2003;" horiz-adv-x="2048" />
<glyph unicode="&#x2004;" horiz-adv-x="679" />
<glyph unicode="&#x2005;" horiz-adv-x="512" />
<glyph unicode="&#x2006;" horiz-adv-x="339" />
<glyph unicode="&#x2007;" horiz-adv-x="339" />
<glyph unicode="&#x2008;" horiz-adv-x="256" />
<glyph unicode="&#x2009;" horiz-adv-x="407" />
<glyph unicode="&#x200a;" horiz-adv-x="110" />
<glyph unicode="&#x2010;" horiz-adv-x="575" d="M0 420v117q0 106 109 106h444v-223h-553z" />
<glyph unicode="&#x2011;" horiz-adv-x="575" d="M0 420v117q0 106 109 106h444v-223h-553z" />
<glyph unicode="&#x2013;" horiz-adv-x="1024" d="M0 420v223h999v-223h-999z" />
<glyph unicode="&#x2014;" horiz-adv-x="2048" d="M0 420v223h2023v-223h-2023z" />
<glyph unicode="&#x2018;" horiz-adv-x="391" d="M0 1415h180q37 0 56 -16q16 -14 28 -31l113 -205h-133z" />
<glyph unicode="&#x2019;" horiz-adv-x="391" d="M0 1163l113 205q16 23 26 31q18 16 58 16h180l-246 -252h-131z" />
<glyph unicode="&#x201c;" horiz-adv-x="686" d="M0 903v225q0 123 63.5 193t192.5 94v-47q0 -25 -12 -37q-10 -10 -47 -35q-20 -10 -45 -32q-33 -39 -35 -88q0 -8 4 -25q2 -10 39 -10h92v-150q0 -88 -92 -88h-160zM399 903v225q0 121 66 193q63 70 190 94v-47q0 -35 -63 -72q-20 -10 -43 -32q-31 -33 -33 -88 q-6 -18 3 -26.5t36 -8.5h4h92v-150q0 -88 -96 -88h-156z" />
<glyph unicode="&#x201d;" horiz-adv-x="686" d="M0 903v225q0 123 63.5 193t192.5 94v-47q0 -25 -12 -37q-10 -10 -47 -35q-20 -10 -45 -32q-33 -39 -35 -88q0 -8 4 -25q2 -10 39 -10h92v-150q0 -88 -92 -88h-160zM399 903v225q0 121 66 193q63 70 190 94v-47q0 -35 -63 -72q-20 -10 -43 -32q-31 -33 -33 -88 q-6 -18 3 -26.5t36 -8.5h4h92v-150q0 -88 -96 -88h-156z" />
<glyph unicode="&#x2026;" horiz-adv-x="681" d="M457 0v135q0 84 84 84h135v-219h-219zM227 0v135q0 84 84 84h135v-219h-219zM0 0v135q0 84 84 84h135v-219h-219z" />
<glyph unicode="&#x202f;" horiz-adv-x="407" />
<glyph unicode="&#x2039;" horiz-adv-x="874" d="M-25 688q0 95 80 135l781 428v-155q0 -16 -13 -41q-14 -29 -35 -39l-557 -303q-31 -25 0 -49l605 -324v-213l-785 426q-76 43 -76 135z" />
<glyph unicode="&#x203a;" horiz-adv-x="903" d="M0 127v158q0 8 10 39q10 29 33 41l561 299q31 25 0 49l-604 327v211l780 -428q84 -43 84 -135t-84 -133z" />
<glyph unicode="&#x205f;" horiz-adv-x="512" />
<glyph unicode="&#x2122;" horiz-adv-x="2598" d="M1149 0v1233q0 57 43 100q45 45 100 47h277l272 -1052l273 1052h419v-1380h-264v1112l-280 -1112h-291l-285 1112v-1112h-264zM0 1133v100q0 57 43 100t100 43h953v-243h-404v-1133h-284v1133h-408z" />
</font>
</defs>
</svg>
